<svg xmlns="http://www.w3.org/2000/svg" viewBox="0 0 923.38 336.31"><defs><style>.cls-1{font-size:56.19px;fill:#6a8e4d;}.cls-1,.cls-2{font-family:RossanovaText-Light, Rossanova Text;font-weight:300;}.cls-2{font-size:177.61px;fill:#2d473f;}.cls-3{fill:#73a541;}.cls-4{fill:none;stroke:#6a8e4d;stroke-miterlimit:10;stroke-width:1.5px;}</style></defs><g id="Layer_5" data-name="Layer 5"><text class="cls-1" transform="translate(94.39 277.07)">For Agricultural Services</text><text class="cls-2" transform="translate(91.71 199.7)"><tspan xml:space="preserve">AGR    VIA</tspan></text><path class="cls-3" d="M524.48,179.23c-.66-4.06-1.09-7.23-1.71-10.38a50.16,50.16,0,0,0-38.83-39c-8.66-1.73-9.4-1.24-9.2,7.47.42,19.12,7.86,34.32,25,44,3.84,2.15,7.95,4,11.31,6.75,3.07,2.51,6.34,5.67,7.66,9.23,2.4,6.47-2.38,12.72-9.59,14.32-7.93,1.77-15.56.34-23.05-2.07-32.15-10.35-54.75-41.09-55.21-74.91a79.83,79.83,0,0,1,70.4-80.82c43.26-5.39,82,23.62,89.27,66.9,5.81,34.51-13.25,72.13-43.84,86.22a53.33,53.33,0,0,1-10.48,3.43c-3.61.82-7.15.36-9.45-3.15s-2.47-7.57,0-10.8a26.5,26.5,0,0,1,8.27-7.06c4.84-2.62,10.13-4.39,15.2-6.6,10.26-4.46,16.08-12.11,17.11-23.42.31-3.36-1-4.81-4-5.75-14.38-4.51-30.59,3.6-36.34,18.34C526.17,174,525.52,176.17,524.48,179.23Z"/><line class="cls-4" x1="863.43" y1="266.06" x2="695" y2="266.06"/></g></svg>